<svg width="176" height="30" viewBox="0 0 176 30" fill="none" xmlns="http://www.w3.org/2000/svg">
<path d="M0 29.1211V0.488281H9.27734C12.793 0.488281 15.0846 0.63151 16.1523 0.917969C17.793 1.34766 19.1667 2.28516 20.2734 3.73047C21.3802 5.16276 21.9336 7.01823 21.9336 9.29688C21.9336 11.0547 21.6146 12.5326 20.9766 13.7305C20.3385 14.9284 19.5247 15.8724 18.5352 16.5625C17.5586 17.2396 16.5625 17.6888 15.5469 17.9102C14.1667 18.1836 12.168 18.3203 9.55078 18.3203H5.78125V29.1211H0ZM5.78125 5.33203V13.457H8.94531C11.224 13.457 12.7474 13.3073 13.5156 13.0078C14.2839 12.7083 14.8828 12.2396 15.3125 11.6016C15.7552 10.9635 15.9766 10.2214 15.9766 9.375C15.9766 8.33333 15.6706 7.47396 15.0586 6.79688C14.4466 6.11979 13.6719 5.69661 12.7344 5.52734C12.0443 5.39714 10.6576 5.33203 8.57422 5.33203H5.78125ZM26.6992 29.1211V0.488281H38.8672C41.9271 0.488281 44.1471 0.748698 45.5273 1.26953C46.9206 1.77734 48.0339 2.6888 48.8672 4.00391C49.7005 5.31901 50.1172 6.82292 50.1172 8.51562C50.1172 10.6641 49.4857 12.4414 48.2227 13.8477C46.9596 15.2409 45.0716 16.1198 42.5586 16.4844C43.8086 17.2135 44.8372 18.0143 45.6445 18.8867C46.4648 19.7591 47.5651 21.3086 48.9453 23.5352L52.4414 29.1211H45.5273L41.3477 22.8906C39.8633 20.6641 38.8477 19.2643 38.3008 18.6914C37.7539 18.1055 37.1745 17.7083 36.5625 17.5C35.9505 17.2786 34.9805 17.168 33.6523 17.168H32.4805V29.1211H26.6992ZM32.4805 12.5977H36.7578C39.5312 12.5977 41.263 12.4805 41.9531 12.2461C42.6432 12.0117 43.1836 11.6081 43.5742 11.0352C43.9648 10.4622 44.1602 9.74609 44.1602 8.88672C44.1602 7.92318 43.8997 7.14844 43.3789 6.5625C42.8711 5.96354 42.1484 5.58594 41.2109 5.42969C40.7422 5.36458 39.3359 5.33203 36.9922 5.33203H32.4805V12.5977ZM54.4141 14.9805C54.4141 12.0638 54.8503 9.61589 55.7227 7.63672C56.3737 6.17839 57.2591 4.86979 58.3789 3.71094C59.5117 2.55208 60.7487 1.69271 62.0898 1.13281C63.8737 0.377604 65.931 0 68.2617 0C72.4805 0 75.8529 1.30859 78.3789 3.92578C80.918 6.54297 82.1875 10.1823 82.1875 14.8438C82.1875 19.4661 80.931 23.0859 78.418 25.7031C75.9049 28.3073 72.5456 29.6094 68.3398 29.6094C64.082 29.6094 60.6966 28.3138 58.1836 25.7227C55.6706 23.1185 54.4141 19.5378 54.4141 14.9805ZM60.3711 14.7852C60.3711 18.0273 61.1198 20.4883 62.6172 22.168C64.1146 23.8346 66.0156 24.668 68.3203 24.668C70.625 24.668 72.513 23.8411 73.9844 22.1875C75.4688 20.5208 76.2109 18.0273 76.2109 14.707C76.2109 11.4258 75.4883 8.97786 74.043 7.36328C72.6107 5.7487 70.7031 4.94141 68.3203 4.94141C65.9375 4.94141 64.0169 5.76172 62.5586 7.40234C61.1003 9.02995 60.3711 11.4909 60.3711 14.7852ZM90.7812 29.1211L83.9453 0.488281H89.8633L94.1797 20.1562L99.4141 0.488281H106.289L111.309 20.4883L115.703 0.488281H121.523L114.57 29.1211H108.438L102.734 7.71484L97.0508 29.1211H90.7812ZM124.492 29.1211V0.488281H145.723V5.33203H130.273V11.6797H144.648V16.5039H130.273V24.2969H146.27V29.1211H124.492ZM151.191 0.488281H162.637C164.902 0.488281 166.589 0.585938 167.695 0.78125C168.815 0.963542 169.811 1.35417 170.684 1.95312C171.569 2.55208 172.305 3.35286 172.891 4.35547C173.477 5.34505 173.77 6.45833 173.77 7.69531C173.77 9.03646 173.405 10.2669 172.676 11.3867C171.96 12.5065 170.983 13.3464 169.746 13.9062C171.491 14.4141 172.832 15.2799 173.77 16.5039C174.707 17.7279 175.176 19.1667 175.176 20.8203C175.176 22.1224 174.87 23.3919 174.258 24.6289C173.659 25.8529 172.832 26.8359 171.777 27.5781C170.736 28.3073 169.447 28.7565 167.91 28.9258C166.947 29.0299 164.622 29.0951 160.938 29.1211H151.191V0.488281ZM156.973 5.25391V11.875H160.762C163.014 11.875 164.414 11.8424 164.961 11.7773C165.951 11.6602 166.725 11.3216 167.285 10.7617C167.858 10.1888 168.145 9.4401 168.145 8.51562C168.145 7.63021 167.897 6.91406 167.402 6.36719C166.921 5.80729 166.198 5.46875 165.234 5.35156C164.661 5.28646 163.014 5.25391 160.293 5.25391H156.973ZM156.973 16.6406V24.2969H162.324C164.408 24.2969 165.729 24.2383 166.289 24.1211C167.148 23.9648 167.845 23.5872 168.379 22.9883C168.926 22.3763 169.199 21.5625 169.199 20.5469C169.199 19.6875 168.991 18.9583 168.574 18.3594C168.158 17.7604 167.552 17.3242 166.758 17.0508C165.977 16.7773 164.271 16.6406 161.641 16.6406H156.973Z" fill="white"/>
</svg>
